<?xml version="1.0" standalone="no"?>
<!DOCTYPE svg PUBLIC "-//W3C//DTD SVG 20010904//EN"
 "http://www.w3.org/TR/2001/REC-SVG-20010904/DTD/svg10.dtd">
<svg version="1.0" xmlns="http://www.w3.org/2000/svg"
 width="1080.000000pt" height="1080.000000pt" viewBox="0 0 1080.000000 1080.000000"
 preserveAspectRatio="xMidYMid meet">
<metadata>
Created by potrace 1.16, written by Peter Selinger 2001-2019
</metadata>
<g transform="translate(0.000000,1080.000000) scale(0.100000,-0.100000)"
fill="#000000" stroke="none">
<path d="M4860 9344 c-14 -2 -68 -11 -120 -20 -135 -23 -284 -75 -440 -154
-178 -91 -311 -179 -354 -236 -95 -124 -163 -418 -154 -666 l3 -97 -51 -59
c-28 -31 -74 -91 -102 -133 -67 -100 -121 -158 -255 -276 -152 -134 -344 -266
-515 -352 -60 -30 -62 -32 -62 -71 0 -22 4 -40 9 -40 5 0 12 -9 16 -19 3 -11
36 -40 73 -65 37 -25 96 -66 132 -91 153 -107 338 -175 527 -196 118 -13 347
-7 451 12 49 9 66 8 78 -1 14 -12 69 -89 170 -237 81 -119 124 -268 144 -494
10 -124 10 -128 -16 -205 -14 -44 -46 -118 -71 -167 -36 -70 -59 -99 -117
-151 -89 -80 -390 -286 -416 -286 -11 0 -53 -9 -93 -19 -169 -45 -251 -52
-506 -45 -168 5 -241 11 -241 18 0 7 -33 35 -74 64 -108 78 -248 224 -388 407
-58 76 -167 186 -233 236 -63 48 -126 66 -186 53 -51 -11 -65 -33 -94 -149
-19 -77 -26 -336 -12 -458 l8 -68 -78 40 c-158 79 -293 102 -361 61 -42 -26
-55 -61 -49 -136 6 -79 47 -163 138 -283 63 -83 67 -91 45 -91 -77 0 -116 -47
-97 -118 13 -45 45 -77 154 -150 131 -89 272 -148 446 -188 l74 -16 -36 -21
c-87 -50 -70 -132 69 -333 41 -59 60 -94 51 -94 -8 0 -37 -9 -65 -21 -100 -42
-108 -135 -26 -295 42 -82 157 -247 218 -314 13 -14 21 -31 19 -38 -12 -33 63
-282 158 -522 59 -152 175 -319 327 -473 182 -186 305 -234 617 -244 l170 -6
24 -76 c14 -42 35 -100 48 -130 13 -30 56 -138 94 -240 39 -102 86 -223 104
-268 19 -48 29 -83 22 -83 -6 0 -22 -11 -36 -24 -39 -35 -219 -170 -368 -275
l-133 -93 0 -44 c0 -39 3 -46 26 -54 14 -6 47 -10 73 -10 58 0 148 -23 220
-55 65 -30 124 -32 176 -5 47 24 88 25 190 4 42 -9 89 -13 103 -9 35 8 202
181 202 209 0 12 -9 53 -20 91 -49 171 -92 359 -124 548 -29 165 -42 277 -33
277 4 0 59 -22 124 -48 366 -151 602 -182 817 -107 38 13 71 23 73 22 2 -3
159 -452 173 -498 8 -26 5 -28 -92 -74 -55 -26 -162 -67 -238 -92 -132 -42
-139 -46 -145 -74 -10 -42 15 -75 62 -84 103 -19 242 -83 341 -157 68 -51 97
-46 287 49 88 45 177 87 198 94 46 16 54 30 55 90 1 36 -10 68 -47 145 -66
136 -116 272 -141 385 -23 107 -47 317 -38 341 4 9 34 22 75 32 169 42 282
128 467 352 155 189 275 416 324 609 96 382 119 803 56 1050 -32 128 -169 398
-270 533 -27 36 -51 71 -53 76 -2 6 -36 61 -76 121 -284 428 -448 715 -524
914 -86 228 -148 742 -122 1021 11 114 51 334 64 346 3 3 113 10 244 14 290
11 310 15 613 123 177 63 232 92 271 139 104 131 69 263 -120 447 -69 66 -195
168 -270 217 l-44 29 7 131 c12 242 -22 464 -90 594 -72 138 -244 305 -413
400 -34 19 -110 64 -169 99 -279 165 -389 199 -657 206 -93 2 -181 2 -195 -1z
m390 -121 c67 -13 206 -61 236 -81 17 -10 53 -236 61 -373 l6 -115 -132 43
c-168 55 -273 73 -427 73 l-124 0 -29 64 c-50 112 -151 186 -261 194 -64 4
-217 -32 -309 -73 -70 -32 -142 -102 -171 -167 -11 -26 -23 -77 -27 -114 l-6
-66 -72 -34 c-39 -19 -74 -34 -77 -34 -11 0 23 134 53 208 38 97 64 130 142
186 85 61 297 175 399 216 234 92 509 120 738 73z m645 -328 c92 -61 227 -196
285 -287 22 -34 49 -90 60 -125 21 -69 46 -240 37 -249 -3 -4 -41 18 -84 48
-85 60 -148 99 -385 237 l-156 92 -7 87 c-7 103 -32 318 -41 349 -6 20 7 15
102 -38 60 -34 145 -85 189 -114z m-1101 -230 c3 -8 8 -37 12 -65 l7 -50 -49
0 c-149 0 -347 -42 -496 -104 -46 -19 -86 -31 -90 -28 -3 4 -8 36 -10 72 l-3
65 61 21 c90 33 440 100 530 103 20 1 34 -5 38 -14z m377 0 c117 -20 279 -70
375 -115 118 -54 490 -270 627 -362 l117 -80 0 -74 c0 -41 -3 -74 -7 -74 -5 0
-78 45 -163 100 -429 276 -517 324 -715 393 -118 41 -223 64 -381 82 -64 7
-117 15 -119 17 -1 2 -5 31 -9 66 l-7 62 99 0 c55 0 137 -7 183 -15z m-1087
-172 c2 -10 6 -41 8 -70 l3 -51 -98 -66 c-55 -36 -101 -66 -103 -66 -6 0 -5
82 2 134 7 46 7 47 88 91 44 25 84 45 88 45 4 0 9 -8 12 -17z m877 -43 c245
-24 399 -67 617 -170 l122 -59 0 -43 c0 -24 9 -119 21 -213 37 -303 29 -405
-46 -645 -51 -164 -121 -438 -142 -555 -27 -155 -24 -529 5 -745 42 -311 80
-443 192 -677 103 -215 187 -352 543 -888 315 -475 358 -636 306 -1150 -25
-244 -86 -476 -165 -629 -112 -220 -344 -503 -486 -596 -50 -33 -185 -80 -227
-80 -8 0 5 18 28 40 45 43 50 64 24 92 -24 27 -37 23 -95 -29 -75 -66 -232
-167 -335 -214 -210 -97 -361 -103 -618 -22 -168 53 -488 187 -598 250 -61 36
-145 83 -185 105 l-74 41 -74 -13 c-50 -9 -119 -11 -207 -7 -215 10 -338 52
-466 160 -118 100 -260 279 -340 428 -43 81 -150 359 -176 459 -15 56 -15 64
-1 79 9 10 16 25 16 34 0 9 -42 67 -93 129 -154 186 -232 316 -225 375 3 26
11 31 92 58 49 17 94 38 100 48 13 20 8 29 -75 138 -64 86 -139 207 -139 226
0 16 56 41 199 89 127 43 135 48 126 88 -18 86 -45 374 -51 550 -7 193 -6 199
12 193 10 -3 64 -23 119 -45 177 -68 210 -73 505 -78 222 -3 282 -1 368 14 56
10 102 15 102 12 -1 -3 -26 -25 -57 -50 -213 -169 -650 -656 -878 -976 -15
-21 26 -58 54 -49 12 3 49 43 83 88 168 221 500 593 666 746 146 135 249 214
479 369 330 223 376 268 461 458 67 151 76 191 68 327 -12 205 -51 376 -116
507 -22 43 -149 230 -202 296 -6 8 13 18 64 34 153 45 279 97 451 183 98 50
183 99 188 110 17 31 3 60 -45 90 -64 40 -123 109 -159 184 -42 91 -47 182
-17 318 36 164 35 153 7 164 -20 8 -41 3 -105 -24 -260 -109 -466 -116 -749
-24 -35 11 -63 24 -63 28 0 17 137 154 198 199 301 219 627 308 993 272z
m1009 -401 c80 -53 204 -134 275 -181 302 -198 515 -406 515 -502 0 -32 -52
-91 -101 -116 -66 -34 -340 -130 -444 -156 -85 -22 -132 -26 -309 -31 -201 -6
-208 -5 -202 13 149 475 154 521 106 897 -25 189 -25 188 -2 179 10 -4 83 -50
162 -103z m-2135 -187 c250 -83 458 -87 683 -12 67 23 82 25 78 13 -4 -9 -12
-57 -18 -108 -21 -168 20 -299 133 -420 45 -47 56 -65 47 -73 -27 -21 -218
-112 -330 -156 -249 -98 -441 -136 -689 -136 -239 0 -370 30 -539 122 -74 40
-246 154 -255 168 -2 4 69 51 159 105 240 142 458 321 571 469 28 35 55 63 60
61 6 -2 51 -17 100 -33z m-1643 -1954 c82 -65 145 -131 253 -268 55 -69 139
-167 189 -218 97 -100 97 -101 -26 -48 -21 9 -55 16 -77 16 -32 0 -44 -6 -67
-32 l-27 -33 6 -216 c6 -185 27 -445 42 -515 7 -33 -16 -34 -166 -8 -167 29
-278 63 -391 121 -93 48 -233 141 -224 150 2 3 37 0 77 -7 54 -9 84 -21 120
-47 59 -42 102 -43 107 -2 2 21 -4 32 -30 50 -112 77 -233 209 -329 357 -87
135 -88 200 -3 188 52 -7 203 -72 303 -130 l76 -45 29 -86 c30 -89 44 -109 72
-103 39 7 39 32 1 155 -62 199 -71 250 -70 433 0 217 21 330 62 330 10 0 43
-19 73 -42z m1790 -3822 c68 -40 147 -85 176 -100 51 -26 52 -27 52 -70 0
-126 88 -628 144 -824 l24 -84 -64 -65 -63 -65 -52 12 c-72 17 -178 15 -242
-5 -50 -15 -54 -15 -97 3 -25 10 -70 25 -100 32 -30 8 -59 17 -63 20 -5 4 39
42 97 84 57 42 146 110 197 151 51 41 95 75 100 75 4 0 15 -22 23 -48 22 -65
43 -92 70 -92 33 0 50 24 42 61 -5 26 -172 450 -329 834 -55 136 -61 155 -48
155 6 0 66 -33 133 -74z m1664 -246 c19 -301 61 -474 170 -708 24 -53 42 -97
40 -99 -8 -8 -328 -163 -337 -163 -4 0 -43 22 -85 50 -42 27 -103 59 -135 71
-33 12 -58 23 -57 24 2 2 44 19 93 38 116 44 243 108 283 142 38 32 40 57 8
82 -18 13 -46 77 -109 253 -46 129 -89 248 -94 265 -9 29 -8 31 51 67 52 31
69 36 115 35 l54 -2 3 -55z"/>
<path d="M5265 8207 c-74 -74 -71 -193 7 -262 33 -30 45 -35 87 -35 85 0 144
69 144 166 0 97 -64 164 -155 164 -43 0 -55 -5 -83 -33z"/>
</g>
</svg>
